<svg xmlns="http://www.w3.org/2000/svg" width="184.594" height="48.259" viewBox="0 0 184.594 48.259"><g id="Group_7887" data-name="Group 7887" transform="translate(-588.417 -349.991)"><path id="Path_3435" data-name="Path 3435" d="M847.031,374.794a10.453,10.453,0,0,0-2.308-3.505,10.669,10.669,0,0,0-3.491-2.294,11.454,11.454,0,0,0-4.375-.828H830.79a11.511,11.511,0,0,0-4.381.828,10.387,10.387,0,0,0-5.816,5.8,11.524,11.524,0,0,0-.835,4.409v4.033a11.5,11.5,0,0,0,.835,4.418c.115.28.244.55.378.814h-8.854V371.255a3.089,3.089,0,0,0-3.089-3.089H795.5a11.515,11.515,0,0,0-4.382.828,10.394,10.394,0,0,0-5.815,5.8,11.54,11.54,0,0,0-.836,4.409v4.033a11.54,11.54,0,0,0,.836,4.409,10.4,10.4,0,0,0,5.815,5.8,11.527,11.527,0,0,0,4.382.827h10.75a5.82,5.82,0,0,1-.369,2.042,4.641,4.641,0,0,1-1.042,1.607,4.8,4.8,0,0,1-1.621,1.037,5.854,5.854,0,0,1-2.137.375H788.293v5.86h12.792a11.5,11.5,0,0,0,4.382-.827,10.4,10.4,0,0,0,5.816-5.8,11.509,11.509,0,0,0,.833-4.3h24.742a11.557,11.557,0,0,0,4.372-.819,10.447,10.447,0,0,0,3.494-2.3,10.581,10.581,0,0,0,2.307-3.5,11.629,11.629,0,0,0,.825-4.417V379.2a11.642,11.642,0,0,0-.825-4.407m-53.666,13.238a4.778,4.778,0,0,1-1.62-1.038,4.624,4.624,0,0,1-1.042-1.608,5.9,5.9,0,0,1-.373-2.153h0V379.2h0a5.9,5.9,0,0,1,.373-2.155,4.623,4.623,0,0,1,1.042-1.606,4.768,4.768,0,0,1,1.62-1.038,5.831,5.831,0,0,1,2.137-.375h10.755v14.38H795.5a5.858,5.858,0,0,1-2.137-.373m48.633-4.8a5.869,5.869,0,0,1-.376,2.153,4.586,4.586,0,0,1-1.039,1.608,4.8,4.8,0,0,1-1.623,1.038,5.835,5.835,0,0,1-2.135.373H830.79a5.849,5.849,0,0,1-2.136-.373,4.777,4.777,0,0,1-1.621-1.038,4.6,4.6,0,0,1-1.041-1.608,5.9,5.9,0,0,1-.375-2.153V379.2a5.909,5.909,0,0,1,.375-2.155,4.6,4.6,0,0,1,1.041-1.606,4.768,4.768,0,0,1,1.621-1.038,5.829,5.829,0,0,1,2.136-.375h6.068a5.785,5.785,0,0,1,2.12.375,4.506,4.506,0,0,1,2.643,2.644A5.883,5.883,0,0,1,842,379.2Z" transform="translate(-74.845 -6.938)" fill="#2e2d2c"></path><path id="Path_3436" data-name="Path 3436" d="M758.358,371.29a10.664,10.664,0,0,0-3.5-2.3,11.522,11.522,0,0,0-4.381-.827h-12.79v5.86h12.79a5.831,5.831,0,0,1,2.137.375,4.79,4.79,0,0,1,1.621,1.038,4.619,4.619,0,0,1,1.041,1.606,5.9,5.9,0,0,1,.374,2.153v4.034a5.9,5.9,0,0,1-.374,2.153,4.605,4.605,0,0,1-1.042,1.606,4.754,4.754,0,0,1-1.62,1.038,5.858,5.858,0,0,1-2.137.375h-12.79v5.86h12.79a11.523,11.523,0,0,0,4.381-.827,10.387,10.387,0,0,0,5.817-5.8,11.511,11.511,0,0,0,.835-4.408V379.2a11.51,11.51,0,0,0-.835-4.408,10.552,10.552,0,0,0-2.315-3.5" transform="translate(-56.985 -6.939)" fill="#2e2d2c"></path><path id="Path_3437" data-name="Path 3437" d="M859.992,355.17a2.283,2.283,0,0,0,.767.5,2.514,2.514,0,0,0,.958.18h1.327a2.513,2.513,0,0,0,.958-.18,2.284,2.284,0,0,0,.764-.5,2.328,2.328,0,0,0,.5-.766,2.525,2.525,0,0,0,.181-.966v-1.033a2.528,2.528,0,0,0-.181-.963,2.293,2.293,0,0,0-.5-.768,2.323,2.323,0,0,0-.764-.5,2.515,2.515,0,0,0-.958-.182h-1.327a2.512,2.512,0,0,0-.958.182,2.322,2.322,0,0,0-.767.5,2.3,2.3,0,0,0-.506.766,2.514,2.514,0,0,0-.184.965v1.033a2.51,2.51,0,0,0,.184.967,2.31,2.31,0,0,0,.506.765" transform="translate(-103.413 0)" fill="#2e2d2c"></path><path id="Path_3438" data-name="Path 3438" d="M592.061,366.527h.587c.3,0,.4.123.446.4a2.769,2.769,0,0,0,.093.639h.587a1.434,1.434,0,0,1-.112-.631c-.019-.271-.1-.551-.39-.626v-.007a.657.657,0,0,0,.424-.669.734.734,0,0,0-.782-.738h-1.441v2.671h.589Zm0-1.172h.642c.263,0,.406.112.406.371s-.143.381-.406.381h-.642Z" transform="translate(-1.166 -5.691)" fill="#2e2d2c"></path><path id="Path_3439" data-name="Path 3439" d="M591.354,368.25a2.935,2.935,0,1,0-2.937-2.935,2.94,2.94,0,0,0,2.937,2.935m0-5.246a2.312,2.312,0,1,1-2.313,2.311A2.314,2.314,0,0,1,591.354,363" transform="translate(0 -4.73)" fill="#2e2d2c"></path><path id="Path_3440" data-name="Path 3440" d="M675.374,371.712a10.384,10.384,0,0,0-5.815-5.8,11.5,11.5,0,0,0-4.383-.828h-2.785l10.733-10.734-4.144-4.143L654.1,365.088l-1.718,1.717,4.143,4.143h8.647a5.843,5.843,0,0,1,2.139.374,4.786,4.786,0,0,1,1.62,1.038,4.622,4.622,0,0,1,1.041,1.606,5.884,5.884,0,0,1,.375,2.155v.257a5.869,5.869,0,0,1-.375,2.154,4.606,4.606,0,0,1-1.042,1.607,4.776,4.776,0,0,1-1.619,1.038,5.869,5.869,0,0,1-2.139.375H652.1a5.857,5.857,0,0,1-2.137-.375,4.778,4.778,0,0,1-1.62-1.038,4.612,4.612,0,0,1-1.042-1.607,5.9,5.9,0,0,1-.375-2.154V361.311h-5.861v15.067a5.845,5.845,0,0,1-.375,2.137,4.78,4.78,0,0,1-1.037,1.62,4.6,4.6,0,0,1-1.608,1.042,6.373,6.373,0,0,1-4.306,0,4.606,4.606,0,0,1-1.606-1.042,4.759,4.759,0,0,1-1.039-1.62,5.845,5.845,0,0,1-.374-2.137v-11.29h-5.861v11.29h0a5.834,5.834,0,0,1-.375,2.137,4.774,4.774,0,0,1-1.038,1.62,4.594,4.594,0,0,1-1.606,1.042,6.377,6.377,0,0,1-4.307,0,4.609,4.609,0,0,1-1.606-1.042,4.743,4.743,0,0,1-1.039-1.62,5.86,5.86,0,0,1-.375-2.137v-11.29h-5.86V387.3h0a5.854,5.854,0,0,1-.375,2.137,4.74,4.74,0,0,1-1.039,1.62,4.606,4.606,0,0,1-1.606,1.042,5.922,5.922,0,0,1-2.154.374h-4.033a5.9,5.9,0,0,1-2.153-.374,4.607,4.607,0,0,1-1.607-1.042,4.784,4.784,0,0,1-1.038-1.62,5.854,5.854,0,0,1-.375-2.137V370.433h-5.86V387.3a11.509,11.509,0,0,0,.828,4.381,10.378,10.378,0,0,0,5.8,5.816,11.514,11.514,0,0,0,4.409.836h4.033a11.518,11.518,0,0,0,4.409-.836,10.392,10.392,0,0,0,5.8-5.816,11.507,11.507,0,0,0,.828-4.381v-1.075c.248.124.5.243.764.351a12.035,12.035,0,0,0,8.817,0,10.6,10.6,0,0,0,3.5-2.315c.064-.067.126-.137.192-.2.064.067.125.137.192.2a10.584,10.584,0,0,0,3.5,2.315,12.037,12.037,0,0,0,8.817,0,10.6,10.6,0,0,0,3.5-2.315c.065-.067.127-.137.192-.2.073.079.145.158.223.234a10.65,10.65,0,0,0,3.5,2.294,11.532,11.532,0,0,0,4.383.828h13.072a11.527,11.527,0,0,0,4.383-.828,10.382,10.382,0,0,0,5.815-5.8,11.511,11.511,0,0,0,.836-4.409v-.257a11.518,11.518,0,0,0-.836-4.409" transform="translate(0 -0.084)" fill="#2e2d2c"></path></g></svg>